# xmcd
# 
# Track frame offsets:
#     182
#     18375
#     37090
#     53410
#     70530
#     94987
#     119307
#     141935
#     161130
#     176675
# 
# Disc length: 2540
# 
# Revision: 1
# Processed by: cddbd v1.5.2PL0 Copyright (c) Steve Scherf et al.
# Submitted via: fre:ac v1.0.27
# 
DISCID=8509ea0a
DTITLE=Lightnin' Hopkins - The Legacy Of The Blues
DYEAR=0
DGENRE=Jazz
TTITLE0=Please Help Poor Me
TTITLE1=Way Out In Abilene
TTITLE2=Don't You Call That Boogie
TTITLE3=Swing In The Backyard
TTITLE4=The Hearse Is Backed Up To The Door
TTITLE5=That Meat's A Little Too High
TTITLE6=Let Them Little Things Be True
TTITLE7=I Been Burning Bad Gasoline
TTITLE8=Don't You Mess With My Woman
TTITLE9=Water Fallin' Boogie
EXTD=ID3G: 0
EXTT0=
EXTT1=
EXTT2=
EXTT3=
EXTT4=
EXTT5=
EXTT6=
EXTT7=
EXTT8=
EXTT9=
PLAYORDER=
